<?xml version="1.0" standalone="no"?>
<!DOCTYPE svg PUBLIC "-//W3C//DTD SVG 20010904//EN"
 "http://www.w3.org/TR/2001/REC-SVG-20010904/DTD/svg10.dtd">
<svg version="1.0" xmlns="http://www.w3.org/2000/svg"
 width="60px" height="60px" viewBox="0 0 1000.000000 800.000000"
 preserveAspectRatio="xMidYMid meet">
<metadata>
Created by potrace 1.16, written by Peter Selinger 2001-2019
</metadata>
<g transform="translate(0.000000,800.000000) scale(0.100000,-0.100000)"
fill="#000000" stroke="none">
<path d="M1778 6539 c-49 -14 -117 -74 -139 -123 -49 -108 -1 -245 103 -295
40 -19 69 -20 433 -27 215 -3 393 -9 396 -13 4 -3 84 -323 179 -711 511 -2093
661 -2699 677 -2735 25 -55 58 -92 107 -118 l41 -22 1671 -3 1671 -2 54 28
c99 51 145 172 105 276 -21 55 -91 121 -142 135 -27 8 -516 11 -1581 11
l-1543 0 -5 23 c-24 95 -62 257 -60 257 2 0 749 92 1661 205 1821 225 1713
208 1777 287 25 32 61 151 274 915 178 639 245 893 246 934 1 100 -56 181
-150 215 -31 11 -427 13 -2240 14 l-2201 0 -73 298 c-75 310 -89 349 -136 394
-67 63 -60 63 -598 65 -304 1 -504 -2 -527 -8z m5402 -1208 c0 -25 -350 -1265
-359 -1270 -5 -4 -221 -33 -478 -64 -257 -32 -972 -120 -1588 -197 -616 -76
-1121 -137 -1121 -137 -1 1 -90 364 -198 807 -109 443 -201 820 -206 838 l-8
32 1979 0 c1118 0 1979 -4 1979 -9z"/>
<path d="M4016 2319 c-110 -26 -236 -129 -286 -234 -61 -128 -60 -261 5 -392
124 -251 452 -317 673 -136 143 117 194 346 115 516 -36 76 -107 157 -171 194
-95 56 -230 77 -336 52z"/>
<path d="M6250 2312 c-78 -26 -109 -44 -168 -97 -204 -183 -184 -524 39 -678
186 -128 408 -110 565 47 217 217 155 572 -124 704 -64 30 -85 35 -165 39 -70
2 -105 -1 -147 -15z"/>
</g>
</svg>
