<?xml version="1.0" standalone="no"?>
<!DOCTYPE svg PUBLIC "-//W3C//DTD SVG 20010904//EN"
 "http://www.w3.org/TR/2001/REC-SVG-20010904/DTD/svg10.dtd">
<svg version="1.0" xmlns="http://www.w3.org/2000/svg"
 width="500.000000pt" height="500.000000pt" viewBox="0 0 500.000000 500.000000"
 preserveAspectRatio="xMidYMid meet">
<metadata>
Created by potrace 1.16, written by Peter Selinger 2001-2019
</metadata>
<g transform="translate(0.000000,500.000000) scale(0.100000,-0.100000)"
fill="#000000" stroke="none">
<path d="M2161 3755 c-81 -18 -181 -65 -248 -117 -59 -45 -136 -141 -165 -205
l-18 -42 -338 -3 -337 -3 -78 -28 c-136 -48 -231 -120 -307 -233 -94 -142 -94
-142 -98 -662 -2 -384 -1 -462 13 -515 44 -175 160 -321 315 -395 47 -22 100
-43 119 -47 l34 -7 -7 -59 c-3 -32 -9 -114 -12 -182 l-7 -123 28 -22 c57 -45
36 -59 399 276 l109 101 586 3 586 3 64 24 c140 52 267 164 332 293 l29 58 83
0 82 -1 210 -195 c115 -107 219 -197 231 -200 32 -8 62 4 80 32 14 21 15 40 5
155 -6 73 -11 151 -11 174 l0 43 68 21 c134 40 269 153 335 279 72 138 72 135
72 642 0 504 0 506 -68 635 -48 90 -165 204 -257 249 -136 66 -128 66 -990 65
-620 0 -788 -3 -839 -14z m1658 -150 c178 -42 311 -185 340 -365 13 -81 14
-751 1 -840 -13 -93 -67 -196 -135 -258 -69 -63 -140 -98 -233 -116 -112 -21
-116 -27 -107 -171 l7 -119 -102 94 c-55 52 -124 115 -152 140 l-52 45 -606 5
-606 5 -75 37 c-86 42 -162 113 -202 186 -54 99 -57 131 -57 572 0 236 5 423
11 449 38 165 185 308 349 340 25 5 385 9 800 10 641 1 765 -2 819 -14z
m-2127 -817 l3 -453 26 -66 c14 -37 38 -88 54 -115 44 -75 150 -174 231 -217
123 -63 152 -67 592 -67 l393 0 -12 -21 c-20 -38 -89 -107 -140 -140 -108 -69
-106 -69 -746 -69 -408 0 -581 -3 -596 -11 -22 -11 -79 -63 -225 -202 -40 -39
-74 -68 -76 -66 -2 2 0 53 6 113 10 119 1 151 -45 160 -117 23 -150 32 -201
59 -71 38 -142 107 -179 175 -54 99 -57 131 -57 572 0 442 4 478 57 570 63
107 186 196 303 219 25 5 172 9 327 10 l282 1 3 -452z"/>
<path d="M2134 3378 c-22 -10 -44 -47 -44 -72 0 -7 9 -25 21 -40 l20 -26 844
0 844 0 20 26 c28 35 26 69 -4 99 l-24 25 -828 -1 c-548 0 -835 -4 -849 -11z"/>
<path d="M2111 2964 c-28 -36 -26 -60 8 -95 l29 -29 822 0 c701 0 825 2 849
15 47 24 56 78 18 113 l-23 22 -841 0 -842 0 -20 -26z"/>
<path d="M2119 2581 c-17 -13 -23 -29 -23 -56 0 -27 6 -43 23 -56 22 -18 51
-19 575 -19 542 0 553 0 574 20 29 27 29 83 2 110 -20 20 -33 20 -574 20 -526
0 -555 -1 -577 -19z"/>
</g>
</svg>
